<svg width="21" height="17" viewBox="0 0 21 17" fill="none" xmlns="http://www.w3.org/2000/svg">
<path d="M16.7583 9.33294C16.7101 9.30862 16.6618 9.29649 16.6131 9.29649C16.5083 9.29649 16.416 9.3367 16.3356 9.4173L15.5628 10.19C15.4905 10.2625 15.4543 10.3509 15.4543 10.4557V13.5221C15.4543 14.0535 15.2655 14.5081 14.887 14.8865C14.5087 15.2648 14.0538 15.454 13.5226 15.454H3.47723C2.94591 15.454 2.4911 15.2648 2.11283 14.8865C1.73447 14.5081 1.5454 14.0535 1.5454 13.5221V3.47702C1.5454 2.94579 1.73447 2.49101 2.11283 2.11261C2.4911 1.7343 2.94591 1.54519 3.47723 1.54519H13.5226C13.6997 1.54519 13.8808 1.56933 14.0659 1.61767C14.1143 1.63365 14.1505 1.64182 14.1743 1.64182C14.2791 1.64182 14.3717 1.60168 14.4522 1.52121L15.0438 0.929589C15.1403 0.833129 15.1766 0.716328 15.1523 0.579608C15.1281 0.450797 15.0556 0.358185 14.9349 0.301899C14.5005 0.100943 14.0294 0 13.5223 0H3.47723C2.51939 0 1.70034 0.340085 1.02017 1.02026C0.340085 1.70051 0 2.51943 0 3.47731V13.5227C0 14.4804 0.340085 15.2994 1.02021 15.9796C1.70038 16.6599 2.51943 17 3.47727 17H13.5226C14.4803 17 15.2994 16.6599 15.9796 15.9796C16.6598 15.2994 17.0002 14.4804 17.0002 13.5227V9.683C17.0001 9.5141 16.9192 9.39747 16.7583 9.33294Z" fill="#1570EF"/>
<path d="M19.7896 2.40261L18.4614 1.07437C18.2682 0.881236 18.0387 0.784649 17.773 0.784649C17.5076 0.784649 17.2779 0.881236 17.0849 1.07437L9.27305 8.88614L6.09785 5.71073C5.90463 5.51747 5.67517 5.42101 5.40964 5.42101C5.14407 5.42101 4.9147 5.51747 4.72144 5.71073L3.39336 7.0388C3.20019 7.23198 3.10352 7.46144 3.10352 7.72714C3.10352 7.99271 3.20019 8.22208 3.39336 8.41534L8.58502 13.607C8.77823 13.8003 9.00769 13.8967 9.27322 13.8967C9.53875 13.8967 9.76817 13.8003 9.96143 13.607L19.7895 3.77898C19.9825 3.58585 20.0793 3.35635 20.0793 3.09078C20.0793 2.8252 19.9828 2.59575 19.7896 2.40261Z" fill="#1570EF"/>
</svg>
