<svg width="47" height="48" viewBox="0 0 47 48" fill="none" xmlns="http://www.w3.org/2000/svg">
<path opacity="0.4" d="M33.6099 47.3337H13.3878C5.47944 47.3337 0.166687 41.7871 0.166687 33.5303V14.4727C0.166687 6.21592 5.47944 0.666992 13.3878 0.666992H33.6123C41.5206 0.666992 46.8334 6.21592 46.8334 14.4727V33.5303C46.8334 41.7871 41.5206 47.3337 33.6099 47.3337Z" fill="#1570EF"/>
<path fill-rule="evenodd" clip-rule="evenodd" d="M21.7384 16.2421C21.7384 19.4387 19.1367 22.0404 15.94 22.0404C12.741 22.0404 10.1417 19.4387 10.1417 16.2421C10.1417 13.0454 12.741 10.4414 15.94 10.4414C19.1367 10.4414 21.7384 13.0454 21.7384 16.2421ZM40.7676 28.8715C41.3113 29.3988 41.701 30.0008 41.9576 30.6425C42.7346 32.5838 42.331 34.9171 41.5003 36.8398C40.5156 39.1288 38.6303 40.8578 36.255 41.6138C35.2003 41.9521 34.0943 42.0968 32.9906 42.0968H13.435C11.489 42.0968 9.76695 41.6441 8.35529 40.7948C7.47095 40.2628 7.31462 39.0378 7.97029 38.2398C9.06695 36.9098 10.1496 35.5751 11.2416 34.2288C13.323 31.6528 14.7253 30.9061 16.284 31.5618C16.9163 31.8325 17.551 32.2408 18.2043 32.6701C19.945 33.8228 22.3646 35.4048 25.552 33.6875C27.7306 32.4962 28.9953 30.4576 30.0961 28.6832L30.1183 28.6475C30.1924 28.5287 30.2658 28.41 30.3391 28.2917C30.7133 27.6869 31.082 27.0912 31.4996 26.5428C32.0176 25.8638 33.9403 23.7405 36.4253 25.2525C38.0096 26.2045 39.342 27.4925 40.7676 28.8715Z" fill="#1570EF"/>
</svg>
