<svg width="16" height="16" viewBox="0 0 16 16" fill="none" xmlns="http://www.w3.org/2000/svg">
<path d="M2 4H3.33333H14" stroke="white" stroke-width="2" stroke-linecap="round" stroke-linejoin="round"/>
<path d="M5.33331 3.99992V2.66659C5.33331 2.31296 5.47379 1.97382 5.72384 1.72378C5.97389 1.47373 6.31302 1.33325 6.66665 1.33325H9.33331C9.68694 1.33325 10.0261 1.47373 10.2761 1.72378C10.5262 1.97382 10.6666 2.31296 10.6666 2.66659V3.99992M12.6666 3.99992V13.3333C12.6666 13.6869 12.5262 14.026 12.2761 14.2761C12.0261 14.5261 11.6869 14.6666 11.3333 14.6666H4.66665C4.31302 14.6666 3.97389 14.5261 3.72384 14.2761C3.47379 14.026 3.33331 13.6869 3.33331 13.3333V3.99992H12.6666Z" stroke="white" stroke-width="2" stroke-linecap="round" stroke-linejoin="round"/>
<path d="M9.33331 7.33325V11.3333" stroke="white" stroke-width="2" stroke-linecap="round" stroke-linejoin="round"/>
<path d="M6.66669 7.33325V11.3333" stroke="white" stroke-width="2" stroke-linecap="round" stroke-linejoin="round"/>
</svg>
