<svg width="16" height="17" viewBox="0 0 16 17" fill="none" xmlns="http://www.w3.org/2000/svg">
<path fill-rule="evenodd" clip-rule="evenodd" d="M3.04345 2.5C2.46738 2.5 2 2.97524 2 3.56027V4.1843C2 4.61765 2.16479 5.03439 2.45957 5.34785L5.69007 8.78288L5.69149 8.78072C6.31514 9.41919 6.66604 10.2823 6.66604 11.1822V14.2301C6.66604 14.4338 6.87913 14.5638 7.056 14.4677L8.8957 13.4653C9.17343 13.3136 9.34675 13.0189 9.34675 12.6989V11.1743C9.34675 10.2794 9.69267 9.41991 10.3106 8.78288L13.5411 5.34785C13.8352 5.03439 14 4.61765 14 4.1843V3.56027C14 2.97524 13.5333 2.5 12.9573 2.5H3.04345Z" stroke="#53545C" stroke-width="1.5" stroke-linecap="round" stroke-linejoin="round"/>
</svg>
