<svg width="17" height="18" viewBox="0 0 17 18" fill="none" xmlns="http://www.w3.org/2000/svg">
<path d="M15.9795 1.52026C15.2994 0.840085 14.4803 0.5 13.5225 0.5H3.47719C2.51943 0.5 1.70038 0.840085 1.02013 1.52026C0.340085 2.20051 0 3.01939 0 3.97731V14.0227C0 14.9804 0.340085 15.7994 1.02013 16.4797C1.70038 17.1599 2.51943 17.5 3.47719 17.5H13.5225C14.4803 17.5 15.2991 17.1599 15.9796 16.4797C16.6598 15.7994 16.9998 14.9804 16.9998 14.0227V3.97731C16.9997 3.01956 16.6596 2.20051 15.9795 1.52026ZM15.4542 14.0227C15.4542 14.0227 15.4542 14.0227 15.4542 14.0227C15.4542 14.5538 15.2652 15.0086 14.8869 15.3871C14.5086 15.7654 14.0539 15.9542 13.5225 15.9542H3.47719C2.94591 15.9542 2.49114 15.7654 2.11278 15.3871C1.73451 15.0086 1.54535 14.5538 1.54535 14.0227V3.97731C1.54535 3.44608 1.73451 2.99131 2.11278 2.61291C2.49114 2.2346 2.94591 2.04548 3.47719 2.04548H13.5225C14.0539 2.04548 14.5086 2.23464 14.887 2.61291C15.2652 2.99127 15.4543 3.44604 15.4543 3.97731V14.0227C15.4543 14.0227 15.4543 14.0227 15.4542 14.0227Z" fill="#D0D5DD"/>
</svg>
